# AST/ASF file generated using VICON BodyLanguage
# -----------------------------------------------
:version 1.10
:name VICON
:units
  mass 1.0
  length 0.45
  angle deg
:documentation
   .ast/.asf automatically generated from VICON data using
   VICON BodyBuilder and BodyLanguage model FoxedUp or BRILLIANT.MOD
:root
   order TX TY TZ RX RY RZ
   axis XYZ
   position 0 0 0  
   orientation 0 0 0 
:bonedata
  begin
     id 1 
     name lhipjoint
     direction 0.734343 -0.627749 0.258209 
     length 2.5437 
     axis 0 0 0  XYZ
  end
  begin
     id 2 
     name lfemur
     direction 0.34202 -0.939693 0  
     length 6.7391  
     axis 0 0 20  XYZ
    dof rx ry rz
    limits (-160.0 20.0)
           (-70.0 70.0)
           (-60.0 70.0)
  end
  begin
     id 3 
     name ltibia
     direction 0.34202 -0.939693 0   
     length 7.21536   
     axis 0 0 20   XYZ
    dof rx
    limits (-10.0 170.0)
  end
  begin
     id 4 
     name lfoot
     direction 0.0489572 -0.134509 0.989702   
     length 1.61313   
     axis -90 7.62852e-016 20   XYZ
    dof rx rz
    limits (-45.0 90.0)
           (-70.0 20.0)
  end
  begin
     id 5 
     name ltoes
     direction 1.53451e-011 -4.21692e-011 1   
     length 0.823104   
     axis -90 7.62852e-016 20   XYZ
    dof rx
    limits (-90.0 20.0)
  end
  begin
     id 6 
     name rhipjoint
     direction -0.746398 -0.615468 0.253157   
     length 2.59446  
     axis 0 0 0  XYZ 
  end
  begin
     id 7 
     name rfemur
     direction -0.34202 -0.939693 0   
     length 6.7075   
     axis 0 0 -20   XYZ
    dof rx ry rz
    limits (-160.0 20.0)
           (-70.0 70.0)
           (-70.0 60.0)
  end
  begin
     id 8 
     name rtibia
     direction -0.34202 -0.939693 0   
     length 7.27262   
     axis 0 0 -20   XYZ
    dof rx
    limits (-10.0 170.0)
 end
 begin
     id 9 
     name rfoot
     direction -0.0455203 -0.125066 0.991104   
     length 1.91095  
     axis -90 -7.62852e-016 -20   XYZ
    dof rx rz
    limits (-45.0 90.0)
           (-20.0 70.0)
  end
  begin
     id 10 
     name rtoes
     direction -1.53601e-011 -4.21913e-011 1   
     length 0.969037   
     axis -90 -7.62852e-016 -20   XYZ
    dof rx
    limits (-90.0 20.0)
  end
  begin
     id 11 
     name lowerback
     direction 0.0181546 0.999122 -0.0377542   
     length 1.99916   
     axis 0 0 0   XYZ
    dof rx ry rz
    limits (-20.0 45.0)
           (-30.0 30.0)
           (-30.0 30.0)
  end
  begin
     id 12 
     name upperback
     direction 0.0203486 0.99589 0.0882534   
     length 1.951   
     axis 0 0 0   XYZ
    dof rx ry rz
    limits (-20.0 45.0)
           (-30.0 30.0)
           (-30.0 30.0)
  end
  begin
     id 13 
     name thorax
     direction 0.0131685 0.994241 0.106355   
     length 1.97461   
     axis 0 0 0   XYZ
    dof rx ry rz
    limits (-20.0 45.0)
           (-30.0 30.0)
           (-30.0 30.0)
  end
  begin
     id 14 
     name lowerneck
     direction -0.0281395 0.999325 0.023617   
     length 1.7959   
     axis 0 0 0   XYZ
    dof rx ry rz
    limits (-20.0 45.0)
           (-30.0 30.0)
           (-30.0 30.0)
  end
  begin
     id 15 
     name upperneck
     direction 0.0288721 0.991984 -0.123019   
     length 1.79917   
     axis 0 0 0   XYZ
    dof rx ry rz
    limits (-20.0 45.0)
           (-30.0 30.0)
           (-30.0 30.0)
  end
  begin
     id 16
     name head
     direction 0.0133797 0.998944 -0.0439492  
     length 1.80902  
     axis 0 0 0   XYZ
    dof rx ry rz
    limits (-20.0 45.0)
           (-30.0 30.0)
           (-30.0 30.0)
  end
  begin
     id 17 
     name lclavicle
     direction 0.919195 0.377107 0.113449  
     length 3.17815  
     axis 0 0 0   XYZ
    dof ry rz
    limits (-20.0 10.0)
           (0.0 20.0)
  end
  begin
     id 18 
     name lhumerus
     direction 1 -4.48959e-011 2.13129e-027   
     length 4.84137   
     axis 180 -30 -90   XYZ
    dof rx ry rz
    limits (-60.0 90.0)
           (-90.0 90.0)
           (-90.0 90.0)
  end
  begin
     id 19
     name lradius
     direction 1 -4.48957e-011 -6.30627e-028   
     length 3.2452   
     axis 180 -30 -90   XYZ
    dof rx
    limits (-10.0 170.0)
  end
  begin
     id 20
     name lwrist
     direction 1 -4.4901e-011 9.13299e-027   
     length 1.6226   
     axis -6.84618e-015 90 90   XYZ
    dof ry
    limits (-180.0 0.0)
 end
  begin
     id 21 
     name lhand
     direction 1 -4.48816e-011 1.82293e-026   
     length 0.521221   
     axis -1.16502e-014 90 90   XYZ
    dof rx rz
    limits (-90.0 90.0)
           (-45.0 45.0)
  end
  begin
     id 22 
     name lfingers
     direction 1 -4.49108e-011 3.65687e-026   
     length 0.420221   
     axis -2.33008e-014 90 90   XYZ
    dof rx
    limits (0.0 90.0)
  end
  begin
     id 23
     name lthumb
     direction 0.707107 -6.34943e-011 0.707107   
     length 0.603356   
     axis -90 45 5.69224e-014   XYZ
    dof rx rz
    limits (-45.0 45.0)
           (-45.0 45.0)
  end
  begin
     id 24 
     name rclavicle
     direction -0.90847 0.38596 0.160368   
     length 3.12973  
     axis 0 0 0   XYZ 
    dof ry rz
    limits (-10.0 20.0)
           (-20.0 0.0)
  end
  begin
     id 25 
     name rhumerus
     direction -1 -4.48974e-011 4.47268e-028  
     length 4.72284   
     axis 180 30 90   XYZ
    dof rx ry rz
    limits (-90.0 60.0)
           (-90.0 90.0)
           (-90.0 90.0)
  end
  begin
     id 26 
     name rradius
     direction -1 -4.48969e-011 3.43203e-027   
     length 3.23459   
     axis 180 30 90   XYZ
    dof rx
    limits (-10.0 170.0)
  end
  begin
     id 27 
     name rwrist
     direction -1 -4.48969e-011 9.12911e-027   
     length 1.6173   
     axis -6.84618e-015 -90 -90   XYZ
    dof ry
    limits (-180.0 0.0)
  end
  begin
     id 28
     name rhand
     direction -1 -4.49194e-011 1.83006e-026   
     length 0.307416   
     axis -1.16502e-014 -90 -90   XYZ
    dof rx rz
    limits (-90.0 90.0)
           (-45.0 45.0)
  end
  begin
     id 29
     name rfingers
     direction -1 -4.48423e-011 3.63103e-026   
     length 0.247847   
     axis -2.33008e-014 -90 -90   XYZ
    dof rx
    limits (0.0 90.0)
  end
  begin
     id 30
     name rthumb
     direction -0.707107 -6.34802e-011 0.707107   
     length 0.35586   
     axis -90 -45 -5.69224e-014   XYZ
    dof rx rz
    limits (-45.0 45.0)
           (-45.0 45.0)
  end
:hierarchy
  begin
    root lhipjoint rhipjoint lowerback
    lhipjoint lfemur
    lfemur ltibia
    ltibia lfoot
    lfoot ltoes
    rhipjoint rfemur
    rfemur rtibia
    rtibia rfoot
    rfoot rtoes
    lowerback upperback
    upperback thorax
    thorax lowerneck lclavicle rclavicle
    lowerneck upperneck
    upperneck head
    lclavicle lhumerus
    lhumerus lradius
    lradius lwrist
    lwrist lhand lthumb
    lhand lfingers
    rclavicle rhumerus
    rhumerus rradius
    rradius rwrist
    rwrist rhand rthumb
    rhand rfingers
  end

#!OML:ASF H:\Terrain\Patient Classification 1\Animal1\Tuesday\Animal1.ASF
:FULLY-SPECIFIED
:DEGREES
129
root 21.4917 15.43 -27.1001 11.4167 -29.8796 2.9829
lowerback 12.2624 -1.45723 -0.874639
upperback 7.20987 -2.10681 -0.263203
thorax 0.692235 -1.1148 0.456555
lowerneck 7.66376 -3.37781 -10.0341
upperneck -27.5087 -2.80362 16.2557
head -9.34691 -2.25584 7.88286
rclavicle 3.01718e-014 -5.73991e-015
rhumerus -11.5283 12.9976 -88.2356
rradius 85.6132
rwrist 14.142
rhand 18.9377 -1.60803
rfingers 7.12502
rthumb 43.5442 -25.6588
lclavicle 3.01718e-014 -5.73991e-015
lhumerus -17.7958 -10.3965 96.2652
lradius 85.837
lwrist -57.2275
lhand 18.0204 44.4142
lfingers 7.12502
lthumb 42.6867 68.7699
rfemur -43.4554 9.8227 14.7712
rtibia 46.1659
rfoot -8.55789 -23.299
rtoes 0.0960193
lfemur -37.1828 -4.08251 -17.6308
ltibia 43.4353
lfoot -17.9719 12.63
ltoes -20.7141
130
root 21.4879 15.4349 -27.1 11.4315 -30.0306 3.01671
lowerback 12.1069 -1.4344 -1.06259
upperback 7.24283 -2.09398 -0.229738
thorax 0.818506 -1.11585 0.589666
lowerneck 7.56145 -3.29228 -10.1799
upperneck -27.2916 -2.73295 16.1687
head -9.26096 -2.19241 7.84943
rclavicle -8.9801e-014 2.60656e-014
rhumerus -10.9303 13.1501 -88.0601
rradius 86.5007
rwrist 14.1587
rhand 17.7932 -1.17505
rfingers 7.12502
rthumb 42.474 -25.6043
lclavicle -8.9801e-014 2.60656e-014
lhumerus -17.6919 -10.3733 96.2629
lradius 86.5821
lwrist -57.4868
lhand 18.9623 44.127
lfingers 7.12502
lthumb 43.5672 68.1694
rfemur -43.4863 9.9678 14.7177
rtibia 46.1095
rfoot -8.35966 -23.3226
rtoes -0.269989
lfemur -37.1575 -3.92786 -17.687
ltibia 43.3882
lfoot -18.1532 12.3226
ltoes -19.3753
131
root 21.488 15.4346 -27.0992 11.3551 -30.0794 3.0591
lowerback 12.0909 -1.46952 -1.08323
upperback 7.27012 -2.14273 -0.270093
thorax 0.855847 -1.14059 0.563694
lowerneck 7.47693 -3.19203 -10.356
upperneck -26.9876 -2.62223 16.2032
head -9.15016 -2.11971 7.85859
rclavicle -1.06909e-014 -6.60027e-015
rhumerus -10.29 13.1156 -88.0888
rradius 87.1697
rwrist 14.5131
rhand 15.4836 0.840073
rfingers 7.12502
rthumb 40.3067 -24.2927
lclavicle -1.06909e-014 -6.60027e-015
lhumerus -17.41 -10.5173 96.1069
lradius 87.2285
lwrist -57.4237
lhand 19.7224 44.1785
lfingers 7.12502
lthumb 44.2763 67.9576
rfemur -43.4013 9.9771 14.6857
rtibia 46.0355
rfoot -8.55363 -23.2156
rtoes 0.246986
lfemur -37.0864 -3.90024 -17.7357
ltibia 43.3981
lfoot -18.3227 12.1287
ltoes -18.4658
132
root 21.4881 15.4346 -27.0974 11.3676 -30.103 2.93805
lowerback 12.0817 -1.55688 -0.906886
upperback 7.26376 -2.24055 -0.308177
thorax 0.847265 -1.18309 0.436005
lowerneck 7.57995 -3.09025 -10.3825
upperneck -26.7951 -2.52159 16.1081
head -9.12191 -2.05876 7.81028
rclavicle 1.38155e-014 1.65737e-014
rhumerus -9.79335 13.2455 -88.149
rradius 87.9139
rwrist 14.7045
rhand 12.2932 2.65533
rfingers 7.12502
rthumb 37.298 -23.3315
lclavicle 1.38155e-014 1.65737e-014
lhumerus -17.3953 -10.5018 96.0085
lradius 88.0462
lwrist -57.2364
lhand 19.6416 44.6779
lfingers 7.12502
lthumb 44.201 68.4854
rfemur -43.2836 9.99644 14.8165
rtibia 45.9134
rfoot -8.60824 -23.1612
rtoes 0.420424
lfemur -37.0587 -3.85222 -17.6302
ltibia 43.4766
lfoot -18.2251 12.3186
ltoes -19.3406
133
root 21.4859 15.435 -27.0968 11.5216 -30.1863 2.62996
lowerback 12.0174 -1.59534 -0.690326
upperback 7.24149 -2.26911 -0.248838
thorax 0.8527 -1.19175 0.377649
lowerneck 7.74822 -2.99771 -10.403
upperneck -26.7191 -2.44686 15.9472
head -9.14527 -2.00631 7.75005
rclavicle 3.55328e-014 3.40916e-014
rhumerus -9.36036 13.4349 -88.0453
rradius 88.7683
rwrist 14.8452
rhand 10.2424 2.717
rfingers 7.12502
rthumb 35.3562 -23.7551
lclavicle 3.55328e-014 3.40916e-014
lhumerus -17.476 -10.318 96.0602
lradius 88.8194
lwrist -57.1893
lhand 19.2305 44.7795
lfingers 7.12502
lthumb 43.8176 68.7301
rfemur -43.2049 10.1465 15.1003
rtibia 45.7386
rfoot -8.4171 -23.192
rtoes -0.235775
lfemur -37.0951 -3.70893 -17.3429
ltibia 43.601
lfoot -18.0939 12.5457
ltoes -20.2447
134
root 21.4831 15.4356 -27.0963 11.6916 -30.2743 2.20171
lowerback 12.0318 -1.59778 -0.399426
upperback 7.19998 -2.24348 -0.144072
thorax 0.794053 -1.17186 0.32174
lowerneck 7.93085 -2.89784 -10.4904
upperneck -26.6295 -2.35943 15.85
head -9.16512 -1.9478 7.72417
rclavicle -6.18966e-014 -3.17062e-014
rhumerus -8.91107 13.4957 -87.9677
rradius 89.4679
rwrist 15.3539
rhand 9.62108 2.80559
rfingers 7.12502
rthumb 34.7669 -23.8046
lclavicle -6.18966e-014 -3.17062e-014
lhumerus -17.4783 -10.1892 96.1145
lradius 89.3587
lwrist -57.2552
lhand 19.0946 44.5406
lfingers 7.12502
lthumb 43.6908 68.5379
rfemur -43.0417 10.343 15.5058
rtibia 45.5183
rfoot -8.26308 -23.2321
rtoes -0.82721
lfemur -37.0994 -3.53919 -16.9384
ltibia 43.7509
lfoot -18.223 12.536
ltoes -20.6325
135
root 21.482 15.437 -27.0941 11.7808 -30.3477 1.87789
lowerback 12.0674 -1.58717 -0.120133
upperback 7.16936 -2.20214 -0.0980166
thorax 0.733788 -1.14357 0.210187
lowerneck 8.07857 -2.8307 -10.4723
upperneck -26.5231 -2.31617 15.6781
head -9.16956 -1.91169 7.65133
rclavicle 5.26779e-014 -3.38928e-014
rhumerus -8.39738 13.5157 -87.9105
rradius 90.1352
rwrist 15.6438
rhand 9.78936 3.70181
rfingers 7.12502
rthumb 34.9265 -22.8714
lclavicle 5.26779e-014 -3.38928e-014
lhumerus -17.5167 -10.1285 96.1197
lradius 89.9779
lwrist -57.2293
lhand 18.9572 44.1801
lfingers 7.12502
lthumb 43.5624 68.2242
rfemur -42.8547 10.4836 15.8216
rtibia 45.3197
rfoot -7.90821 -23.262
rtoes -1.23616
lfemur -37.0677 -3.38241 -16.6568
ltibia 43.869
lfoot -18.3021 12.531
ltoes -21.3087
136
root 21.4833 15.4376 -27.0896 11.8909 -30.3513 1.68427
lowerback 11.9704 -1.63323 0.105402
upperback 7.15159 -2.24029 -0.0829643
thorax 0.759598 -1.1559 0.100901
lowerneck 8.24612 -2.76767 -10.1498
upperneck -26.547 -2.29971 15.1648
head -9.2355 -1.88324 7.40944
rclavicle -5.72748e-014 4.42296e-015
rhumerus -7.81286 13.6013 -87.8876
rradius 90.9642
rwrist 15.4643
rhand 10.2507 4.02556
rfingers 7.12502
rthumb 35.3641 -22.4447
lclavicle -5.72748e-014 4.42296e-015
lhumerus -17.5579 -9.90599 96.1585
lradius 90.7109
lwrist -57.2737
lhand 18.4736 43.8844
lfingers 7.12502
lthumb 43.1106 68.0912
rfemur -42.795 10.5297 15.9936
rtibia 45.1846
rfoot -7.47554 -23.3032
rtoes -1.81524
lfemur -37.1043 -3.34683 -16.4861
ltibia 43.9163
lfoot -18.3344 12.5772
ltoes -21.4933
137
root 21.4826 15.438 -27.0869 11.9795 -30.3653 1.67666
lowerback 11.8439 -1.72309 0.0760957
upperback 7.07163 -2.35935 -0.0527161
thorax 0.746317 -1.21589 0.1592
lowerneck 8.2764 -2.62794 -9.9799
upperneck -26.3393 -2.19986 14.6672
head -9.20192 -1.79622 7.17309
rclavicle 1.86361e-014 3.84648e-014
rhumerus -7.33282 13.9316 -87.9005
rradius 91.8691
rwrist 15.23
rhand 10.1822 2.90704
rfingers 7.12502
rthumb 35.2991 -23.5786
lclavicle 1.86361e-014 3.84648e-014
lhumerus -17.3818 -9.80019 96.0804
lradius 91.0022
lwrist -57.071
lhand 17.8647 43.9665
lfingers 7.12502
lthumb 42.5409 68.3727
rfemur -42.8547 10.5544 15.9758
rtibia 45.1109
rfoot -7.47268 -23.2895
rtoes -1.65526
lfemur -37.1651 -3.34411 -16.468
ltibia 43.8973
lfoot -18.5318 12.4698
ltoes -20.6501
138
root 21.4818 15.4408 -27.0837 11.9565 -30.4197 1.82224
lowerback 11.7886 -1.82221 -0.158998
upperback 6.96155 -2.50967 -0.0027332
thorax 0.673273 -1.2976 0.359427
lowerneck 8.14854 -2.42678 -10.1618
upperneck -25.878 -2.01526 14.4274
head -9.04727 -1.65695 7.06627
rclavicle -2.51711e-014 -7.60351e-015
rhumerus -6.91093 14.3555 -87.7908
rradius 92.7301
rwrist 15.1738
rhand 9.16971 2.15659
rfingers 7.12502
rthumb 34.3384 -24.5514
lclavicle -2.51711e-014 -7.60351e-015
lhumerus -17.0697 -9.83094 95.8686
lradius 91.1163
lwrist -56.4409
lhand 17.6929 44.3201
lfingers 7.12502
lthumb 42.3801 68.7816
rfemur -42.8924 10.5117 15.829
rtibia 45.0763
rfoot -7.6568 -23.1749
rtoes -1.10546
lfemur -37.1464 -3.39742 -16.6024
ltibia 43.8221
lfoot -18.6049 12.4992
ltoes -20.1069
139
root 21.4818 15.4436 -27.0773 11.9406 -30.4629 1.83668
lowerback 11.744 -1.88633 -0.246107
upperback 6.90126 -2.60075 0.066424
thorax 0.641954 -1.34625 0.489343
lowerneck 8.29526 -2.24872 -10.1864
upperneck -25.7856 -1.85065 14.1237
head -9.07591 -1.54497 6.94588
rclavicle 8.09054e-014 -3.60297e-014
rhumerus -6.44553 14.4362 -87.5732
rradius 93.5428
rwrist 15.4132
rhand 8.6466 2.89316
rfingers 7.12502
rthumb 33.8416 -23.9256
lclavicle 8.09054e-014 -3.60297e-014
lhumerus -17.0898 -9.57261 95.9002
lradius 91.8623
lwrist -56.1128
lhand 18.0008 44.9481
lfingers 7.12502
lthumb 42.6684 69.3102
rfemur -42.8387 10.486 15.8043
rtibia 45.0246
rfoot -7.70913 -23.0809
rtoes -1.10226
lfemur -37.0593 -3.48643 -16.6199
ltibia 43.7158
lfoot -18.4525 12.733
ltoes -20.3641
140
root 21.4787 15.4465 -27.0719 11.8768 -30.5524 1.86497
lowerback 11.7051 -1.87589 -0.283129
upperback 6.88597 -2.59059 0.0533407
thorax 0.647767 -1.34194 0.494333
lowerneck 8.58648 -2.14784 -9.96561
upperneck -25.8994 -1.75963 13.7871
head -9.19761 -1.49278 6.79354
rclavicle -6.95249e-014 6.12754e-014
rhumerus -5.97787 14.2948 -87.4688
rradius 94.3655
rwrist 15.5102
rhand 8.89719 3.35175
rfingers 7.12502
rthumb 34.0796 -23.4143
lclavicle -6.95249e-014 6.12754e-014
lhumerus -17.2637 -9.35571 95.9941
lradius 92.8765
lwrist -55.9139
lhand 17.8633 45.6873
lfingers 7.12502
lthumb 42.5396 70.0939
rfemur -42.758 10.5812 15.7547
rtibia 44.9553
rfoot -7.80546 -23.0772
rtoes -0.755303
lfemur -36.892 -3.49789 -16.6542
ltibia 43.5757
lfoot -18.3198 12.9455
ltoes -21.0988
141
root 21.474 15.4564 -27.0694 11.7029 -30.7271 1.95595
lowerback 11.7504 -1.83079 -0.338874
upperback 6.92485 -2.5388 -0.0493423
thorax 0.661189 -1.31647 0.414521
lowerneck 8.6445 -2.09416 -9.67089
upperneck -25.889 -1.70916 13.4611
head -9.22493 -1.46267 6.61864
rclavicle 4.73604e-014 2.33572e-014
rhumerus -5.44091 14.1184 -87.5035
rradius 95.1927
rwrist 15.5712
rhand 8.99711 3.55387
rfingers 7.12502
rthumb 34.1745 -23.191
lclavicle 4.73604e-014 2.33572e-014
lhumerus -17.103 -9.40189 95.8104
lradius 93.6374
lwrist -55.5707
lhand 17.5024 45.9471
lfingers 7.12502
lthumb 42.2017 70.4692
rfemur -42.5911 10.7588 15.6528
rtibia 44.8784
rfoot -8.02261 -23.0887
rtoes 0.300031
lfemur -36.5803 -3.41548 -16.7616
ltibia 43.4138
lfoot -18.4752 12.867
ltoes -20.6533
142
root 21.4689 15.466 -27.0681 11.5651 -30.9338 2.0826
lowerback 11.7641 -1.76044 -0.502139
upperback 6.97799 -2.46404 -0.118547
thorax 0.712527 -1.28359 0.425493
lowerneck 8.40786 -1.99742 -9.54111
upperneck -25.7296 -1.59936 13.1955
head -9.14669 -1.38783 6.47186
rclavicle 1.5207e-014 3.07619e-014
rhumerus -4.73866 13.9215 -87.4409
rradius 95.9648
rwrist 15.7854
rhand 8.37261 4.00587
rfingers 7.12502
rthumb 33.5812 -22.8699
lclavicle 1.5207e-014 3.07619e-014
lhumerus -16.7256 -9.37094 95.5571
lradius 94.2331
lwrist -55.4394
lhand 17.6982 45.8895
lfingers 7.12502
lthumb 42.385 70.3492
rfemur -42.4818 10.8705 15.5384
rtibia 44.8143
rfoot -8.0458 -23.0498
rtoes 0.400697
lfemur -36.3303 -3.27083 -16.9046
ltibia 43.2701
lfoot -18.7224 12.6202
ltoes -19.2764
